HIERARCHY
ROOT SpineBase
{
  OFFSET 0.000000 0.000000 0.000000
  CHANNELS 6 Xposition Yposition Zposition Zrotation Xrotation Yrotation
  JOINT SpineMid
  {
    OFFSET 0.000000 31.895382 0.000000
    CHANNELS 3 Zrotation Xrotation Yrotation
    JOINT SpineShoulder
    {
      OFFSET -0.099820 23.688798 -0.884535
      CHANNELS 3 Zrotation Xrotation Yrotation
      JOINT Neck
      {
        OFFSET -0.083555 7.843685 -0.666980
        CHANNELS 3 Zrotation Xrotation Yrotation
        JOINT Head
        {
          OFFSET -5.208417 10.946081 3.622018
          CHANNELS 3 Zrotation Xrotation Yrotation
          End Site
          {
            OFFSET 0 0 0
          }
        }
      }
      JOINT ShoulderLeft
      {
        OFFSET -9.344543 -3.831037 12.594064
        CHANNELS 3 Zrotation Xrotation Yrotation
        JOINT ElbowLeft
        {
          OFFSET -1.449533 -29.453872 9.520934
          CHANNELS 3 Zrotation Xrotation Yrotation
          JOINT WristLeft
          {
            OFFSET -6.396233 -23.027047 -8.911029
            CHANNELS 3 Zrotation Xrotation Yrotation
            JOINT HandLeft
            {
              OFFSET -1.883683 -3.938136 -2.329216
              CHANNELS 3 Zrotation Xrotation Yrotation
              JOINT HandTipLeft
              {
                OFFSET -2.245854 -5.205093 -2.240469
                CHANNELS 3 Zrotation Xrotation Yrotation
                End Site
                {
                  OFFSET 0 0 0
                }
              }
              JOINT ThumbLeft
              {
                OFFSET 1.557860 -0.110232 -3.761793
                CHANNELS 3 Zrotation Xrotation Yrotation
                End Site
                {
                  OFFSET 0 0 0
                }
              }
            }
          }
        }
      }
      JOINT ShoulderRight
      {
        OFFSET 7.909610 -3.174527 -14.382579
        CHANNELS 3 Zrotation Xrotation Yrotation
        JOINT ElbowRight
        {
          OFFSET 7.187679 -21.636140 -6.779915
          CHANNELS 3 Zrotation Xrotation Yrotation
          JOINT WristRight
          {
            OFFSET -20.504266 -11.294442 -4.502878
            CHANNELS 3 Zrotation Xrotation Yrotation
            JOINT HandRight
            {
              OFFSET -5.344848 0.066551 -0.511281
              CHANNELS 3 Zrotation Xrotation Yrotation
              JOINT HandTipRight
              {
                OFFSET -5.795171 -1.680270 -3.733456
                CHANNELS 3 Zrotation Xrotation Yrotation
                End Site
                {
                  OFFSET 0 0 0
                }
              }
              JOINT ThumbRight
              {
                OFFSET -4.147676 2.771376 -0.067918
                CHANNELS 3 Zrotation Xrotation Yrotation
                End Site
                {
                  OFFSET 0 0 0
                }
              }
            }
          }
        }
      }
    }
  }
  JOINT HipLeft
  {
    OFFSET -3.398682 -0.197534 1.365795
    CHANNELS 3 Zrotation Xrotation Yrotation
    JOINT KneeLeft
    {
      OFFSET -2.983978 -32.603686 3.982944
      CHANNELS 3 Zrotation Xrotation Yrotation
      JOINT AnkleLeft
      {
        OFFSET 8.194789 -35.247226 3.358874
        CHANNELS 3 Zrotation Xrotation Yrotation
        JOINT FootLeft
        {
          OFFSET -7.978187 -4.496759 -8.294819
          CHANNELS 3 Zrotation Xrotation Yrotation
          End Site
          {
            OFFSET 0 0 0
          }
        }
      }
    }
  }
  JOINT HipRight
  {
    OFFSET 2.335690 2.261558 -9.247894
    CHANNELS 3 Zrotation Xrotation Yrotation
    JOINT KneeRight
    {
      OFFSET 6.865015 -35.610988 -5.942818
      CHANNELS 3 Zrotation Xrotation Yrotation
      JOINT AnkleRight
      {
        OFFSET 9.177423 -35.301779 -0.876255
        CHANNELS 3 Zrotation Xrotation Yrotation
        JOINT FootRight
        {
          OFFSET -6.931086 -5.268961 -7.313553
          CHANNELS 3 Zrotation Xrotation Yrotation
          End Site
          {
            OFFSET 0 0 0
          }
        }
      }
    }
  }
}
MOTION
Frames: 8
Frame Time: 0.033333
49.101976 78.144744 359.172190 -0.000000 0.000000 61.618497 -0.000000 0.000000 -61.618497 -0.000000 0.000000 0.000000 -0.000000 0.000000 0.000000 0.000000 0.000000 0.000000 -0.000000 0.000000 0.000000 -0.000000 0.000000 0.000000 -0.000000 0.000000 0.000000 -0.000000 0.000000 0.000000 0.000000 0.000000 0.000000 0.000000 0.000000 0.000000 -0.000000 0.000000 0.000000 -0.000000 0.000000 0.000000 -0.000000 0.000000 0.000000 -0.000000 0.000000 0.000000 0.000000 0.000000 0.000000 0.000000 0.000000 0.000000 -0.000000 0.000000 -61.618497 -0.000000 0.000000 0.000000 -0.000000 0.000000 0.000000 0.000000 0.000000 0.000000 -0.000000 0.000000 -61.618497 -0.000000 0.000000 0.000000 -0.000000 0.000000 0.000000 0.000000 0.000000 0.000000
49.056142 78.162708 359.104880 -0.055576 0.026263 61.837831 0.003076 -0.061392 -61.837816 -0.000000 0.000000 0.000000 -0.000000 0.000000 0.000000 0.000000 0.000000 0.000000 -0.000000 0.000000 0.000000 -0.000000 0.000000 0.000000 3.658397 -5.593737 0.723971 -3.647623 1.550547 1.429357 0.000000 0.000000 0.000000 0.000000 0.000000 0.000000 -0.000000 0.000000 0.000000 -0.000000 0.000000 0.000000 0.661278 -0.074191 -0.597672 -1.190266 0.048489 1.800083 0.000000 0.000000 0.000000 0.000000 0.000000 0.000000 0.003076 -0.061392 -61.837816 -0.000000 0.000000 0.000000 -0.000000 0.000000 0.000000 0.000000 0.000000 0.000000 0.003076 -0.061392 -61.837816 -0.000000 0.000000 0.000000 -0.000000 0.000000 0.000000 0.000000 0.000000 0.000000
49.017217 78.176469 359.046057 -0.101852 0.042212 62.008039 0.010530 -0.109748 -62.007991 -0.000000 0.000000 0.000000 -0.000000 0.000000 0.000000 0.000000 0.000000 0.000000 -0.000000 0.000000 0.000000 -0.843006 0.616510 0.158863 7.700411 -11.607054 1.953864 -6.602779 3.797249 2.492646 0.000000 0.000000 0.000000 0.000000 0.000000 0.000000 -0.000000 0.000000 0.000000 -0.000000 0.000000 0.000000 1.190792 -0.141810 -1.214060 -2.181663 0.090195 3.369215 0.000000 0.000000 0.000000 0.000000 0.000000 0.000000 0.010530 -0.109748 -62.007991 -0.000000 0.000000 0.000000 -0.953396 0.787545 0.358129 0.000000 0.000000 0.000000 0.010530 -0.109748 -62.007991 -0.000000 0.000000 0.000000 -0.195615 -0.342132 0.722361 0.000000 0.000000 0.000000
48.985200 78.186026 358.995721 -0.138813 0.047837 62.129810 0.022603 -0.145074 -62.129724 -0.000000 0.000000 0.000000 -0.000000 0.000000 0.000000 0.000000 0.000000 0.000000 -0.000000 0.000000 0.000000 -0.899473 0.394101 0.240863 10.429878 -16.404276 3.655939 -8.794218 6.602741 3.044148 0.000000 0.000000 0.000000 0.000000 0.000000 0.000000 -0.914717 0.477844 0.449803 0.655747 -0.905112 0.419363 1.844207 0.193009 -2.729036 -2.971637 0.133858 4.699738 0.000000 0.000000 0.000000 0.000000 0.000000 0.000000 -0.462450 0.707157 -62.244206 0.980059 0.032376 0.116585 -1.491170 1.271319 0.490310 0.000000 0.000000 0.000000 0.022603 -0.145074 -62.129724 -0.000000 0.000000 0.000000 -0.344810 -0.325319 0.905544 0.000000 0.000000 0.000000
48.960092 78.191381 358.953873 -0.166447 0.043131 62.203651 0.039466 -0.167354 -62.203531 -0.000000 0.000000 0.000000 -0.000000 0.000000 0.000000 0.000000 0.000000 0.000000 -0.000000 0.000000 0.000000 -0.000000 0.000000 0.000000 11.717420 -20.491372 6.011030 -10.166777 9.859606 2.943950 0.000000 0.000000 0.000000 0.000000 0.000000 0.000000 -1.143228 0.568017 0.553593 0.827633 -1.117789 0.555113 2.166100 0.249646 -3.635678 -3.557869 0.187183 5.788798 0.000000 0.000000 0.000000 0.000000 0.000000 0.000000 -0.531184 0.842387 -62.338565 1.159246 0.036693 0.138025 -2.064636 1.810019 0.593604 0.000000 0.000000 0.000000 0.039466 -0.167354 -62.203531 -0.000000 0.000000 0.000000 -0.528132 -0.182825 0.968980 0.000000 0.000000 0.000000
48.941891 78.192533 358.920511 -0.184746 0.028091 62.229888 0.061222 -0.176556 -62.229749 -0.000000 0.000000 0.000000 -0.000000 0.000000 0.000000 0.000000 0.000000 0.000000 -0.000000 0.000000 0.000000 -0.289032 -1.100003 0.415885 13.228932 -23.523689 7.748209 -10.656456 13.497867 2.057544 0.000000 0.000000 0.000000 0.000000 0.000000 0.000000 -1.333221 0.624122 0.633761 0.976542 -1.285566 0.688676 2.340207 0.309786 -4.544774 -3.937940 0.256710 6.637952 0.000000 0.000000 0.000000 0.000000 0.000000 0.000000 -0.557028 0.924089 -62.376596 1.261832 0.037499 0.150467 -2.669684 2.399425 0.670070 0.000000 0.000000 0.000000 0.061222 -0.176556 -62.229749 -0.000000 0.000000 0.000000 -0.743997 0.084071 0.913914 0.000000 0.000000 0.000000
48.930135 78.179079 358.920158 -0.190141 -0.024310 62.099698 0.110458 -0.156664 -62.099588 -0.000000 0.000000 0.000000 0.186345 -0.784183 -0.434170 0.000000 0.000000 0.000000 -0.000000 0.000000 0.000000 0.473058 -2.841981 0.624959 13.377881 -27.331255 11.196788 -10.699304 21.234257 -0.679511 0.000000 0.000000 0.000000 0.000000 0.000000 0.000000 -1.382613 0.616429 0.646996 0.967325 -1.365266 0.854384 2.788883 0.320552 -4.995946 -4.579599 0.972855 4.998451 0.000000 0.000000 0.000000 0.000000 0.000000 0.000000 -0.499738 1.010622 -62.256422 1.317138 -0.003290 0.161420 -4.439091 4.161797 0.851173 0.000000 0.000000 0.000000 0.110458 -0.156664 -62.099588 -0.000000 0.000000 0.000000 -2.654493 2.174307 0.827988 0.000000 0.000000 0.000000
48.930521 78.169894 358.902948 -0.181755 -0.059923 61.968791 0.138310 -0.132273 -61.968726 -0.000000 0.000000 0.000000 0.321825 -0.856097 -0.512025 0.000000 0.000000 0.000000 -0.000000 0.000000 0.000000 1.573934 -4.930222 0.846271 11.928403 -28.144699 13.093224 -9.605393 26.544177 -3.374075 0.000000 0.000000 0.000000 0.000000 0.000000 0.000000 -1.502500 0.579143 0.672700 1.121429 -1.423755 0.986088 1.975492 0.500219 -6.239112 -3.578465 0.709858 6.242238 0.000000 0.000000 0.000000 0.000000 0.000000 0.000000 -0.431823 0.957774 -62.115579 1.230118 -0.005824 0.151023 -6.516375 6.190522 1.159238 0.000000 0.000000 0.000000 0.138310 -0.132273 -61.968726 -0.000000 0.000000 0.000000 -6.781002 6.220543 1.388343 0.000000 0.000000 0.000000
